HIERARCHY
ROOT Hips
{
	OFFSET 0.00000 0.00000 0.00000
	CHANNELS 6 Xposition Yposition Zposition Zrotation Yrotation Xrotation 
	JOINT LHipJoint
	{
		OFFSET 0 0 0
		CHANNELS 3 Zrotation Yrotation Xrotation
		JOINT LeftHip
		{
			OFFSET 1.37959 -1.78713 0.86582
			CHANNELS 3 Zrotation Yrotation Xrotation
			JOINT LeftKnee
			{
				OFFSET 2.54611 -6.99539 0.00000
				CHANNELS 3 Zrotation Yrotation Xrotation
				JOINT LeftAnkle
				{
					OFFSET 2.59951 -7.14211 0.00000
					CHANNELS 3 Zrotation Yrotation Xrotation
					JOINT LeftToe
					{
						OFFSET 0.18493 -0.50810 1.96120
						CHANNELS 3 Zrotation Yrotation Xrotation
						End Site
						{
							OFFSET 0.00000 -0.00000 1.02054
						}
					}
				}
			}
		}
	}
	JOINT RHipJoint
	{
		OFFSET 0 0 0
		CHANNELS 3 Zrotation Yrotation Xrotation
		JOINT RightHip
		{
			OFFSET -1.33564 -1.78713 0.86582
			CHANNELS 3 Zrotation Yrotation Xrotation
			JOINT RightKnee
			{
				OFFSET -2.52705 -6.94302 0.00000
				CHANNELS 3 Zrotation Yrotation Xrotation
				JOINT RightAnkle
				{
					OFFSET -2.55964 -7.03257 0.00000
					CHANNELS 3 Zrotation Yrotation Xrotation
					JOINT RightToe
					{
						OFFSET -0.25804 -0.70896 2.12109
						CHANNELS 3 Zrotation Yrotation Xrotation
						End Site
						{
							OFFSET -0.00000 -0.00000 1.11821
						}
					}
				}
			}
		}
	}
	JOINT lowerback
	{
		OFFSET 0 0 0
		CHANNELS 3 Zrotation Yrotation Xrotation
		JOINT Chest
		{
			OFFSET -0.02031 2.24248 -0.18900
			CHANNELS 3 Zrotation Yrotation Xrotation
			JOINT Chest2
			{
				OFFSET 0.08342 2.24689 -0.03799
				CHANNELS 3 Zrotation Yrotation Xrotation
				JOINT lowerneck
				{
					OFFSET 0 0 0
					CHANNELS 3 Zrotation Yrotation Xrotation
					JOINT Neck
					{
						OFFSET -0.11607 1.55844 0.24628
						CHANNELS 3 Zrotation Yrotation Xrotation
						JOINT Head
						{
							OFFSET 0.06877 1.60174 -0.17013
							CHANNELS 3 Zrotation Yrotation Xrotation
							End Site
							{
								OFFSET 0.03358 1.61266 -0.08543
							}
						}
					}
				}
				JOINT LeftCollar
				{
					OFFSET 0 0 0
					CHANNELS 3 Zrotation Yrotation Xrotation
					JOINT LeftShoulder
					{
						OFFSET 3.47537 0.55866 -0.72348
CHANNELS 3 Zrotation Xrotation Yrotation
						JOINT LeftElbow
						{
OFFSET 0 -5.381540 0.000000
CHANNELS 3 Zrotation Xrotation Yrotation
							JOINT LeftWrist
							{
OFFSET 0 -3.333120 0.000000
CHANNELS 3 Zrotation Xrotation Yrotation
								JOINT lhand
								{
									OFFSET 0 0 0
CHANNELS 3 Zrotation Xrotation Yrotation
									JOINT LFingers
									{
OFFSET 0 -0.710790 0.000000
CHANNELS 3 Zrotation Xrotation Yrotation
										End Site
										{
OFFSET 0 -0.573060 0.000000
										}
									}
								}
								JOINT LThumb
								{
OFFSET 0 0.000000 0.000000
CHANNELS 3 Zrotation Xrotation Yrotation
									End Site
									{
OFFSET 0 -0.581810 0.581810
									}
								}
							}
						}
					}
				}
				JOINT RightCollar
				{
					OFFSET 0 0 0
					CHANNELS 3 Zrotation Yrotation Xrotation
					JOINT RightShoulder
					{
						OFFSET -3.27844 0.90739 -0.35708
CHANNELS 3 Zrotation Xrotation Yrotation
						JOINT RightElbow
						{
OFFSET 0 -5.169540 0.000000
CHANNELS 3 Zrotation Xrotation Yrotation
							JOINT RightWrist
							{
OFFSET 0 -3.382870 0.000000
CHANNELS 3 Zrotation Xrotation Yrotation
								JOINT rhand
								{
									OFFSET 0 0 0
CHANNELS 3 Zrotation Xrotation Yrotation
									JOINT RFingers
									{
OFFSET 0 -0.817970 0.000000
CHANNELS 3 Zrotation Xrotation Yrotation
										End Site
										{
OFFSET 0 -0.659470 0.000000
										}
									}
								}
								JOINT RThumb
								{
OFFSET 0 0.000000 0.000000
CHANNELS 3 Zrotation Xrotation Yrotation
									End Site
									{
OFFSET 0 -0.669530 0.669530
									}
								}
							}
						}
					}
				}
			}
		}
	}
}
MOTION
Frames: 10
Frame Time: 0.008333333333333333
-6.062500 16.784800 -13.477900 -155.654000 67.294800 -146.589000 0.000000 0.000000 0.000000 -5.983900 -3.088600 -41.130000 11.133100 17.999600 63.213100 1.534500 -9.163800 -22.204300 1.352900 -7.363300 -20.796100 0.000000 0.000000 0.000000 28.728200 -0.274600 -8.937300 -1.937700 -8.735100 24.970100 -2.358000 9.577900 -27.611300 -0.944200 6.188800 -17.333200 4.355400 -0.697600 4.925500 4.607200 -0.490000 1.716200 2.330600 -0.174600 -0.995400 -12.247500 -6.873500 -13.120600 9.266200 -8.355500 12.887800 4.131500 -3.886000 7.008900 0.000000 0.000000 0.000000 0.990700 1.312500 -17.278300 21.298400 -32.175000 6.208100 -0.419500 7.114700 -37.595200 0.000000 0.000000 0.000000 -7.125000 0.000000 0.000000 -42.036100 62.521600 19.697300 0.000000 0.000000 0.000000 -16.924700 -8.990200 12.186400 -22.467200 -33.501000 -6.841900 -9.295000 -24.683500 -13.460200 0.000000 0.000000 0.000000 7.125000 0.000000 -0.000000 12.389900 16.544800 8.552900
-5.990177 16.781583 -13.526763 -154.149154 67.197340 -145.054806 0.000000 0.000000 0.000000 -5.082480 -3.170455 -42.056507 10.920296 17.895705 62.522364 1.568370 -8.840656 -22.434135 1.701342 -8.213891 -23.365726 0.000000 0.000000 0.000000 29.245783 -0.268893 -8.344875 -1.812641 -8.464298 24.133461 -2.315871 9.842361 -27.359016 -0.896525 6.034235 -16.883945 5.003059 -0.475923 5.106194 4.609451 -0.139638 1.710636 1.952239 0.003437 -1.106985 -11.845120 -6.836933 -12.868334 9.164108 -8.374980 12.477929 4.036079 -3.891441 6.813306 0.000000 0.000000 0.000000 0.940164 1.388773 -16.771218 21.427035 -32.323008 6.276893 -0.316372 7.500936 -37.547379 0.000000 0.000000 0.000000 -7.125000 0.000000 0.000000 -41.876147 62.512905 19.599323 0.000000 0.000000 0.000000 -17.195475 -9.644950 12.610834 -22.773419 -33.839831 -7.011825 -8.823383 -25.250850 -13.687396 0.000000 0.000000 0.000000 7.125000 0.000000 0.000000 12.701137 16.347342 8.834825
-5.900102 16.775846 -13.577191 -154.429614 67.284351 -145.332135 0.000000 0.000000 0.000000 -4.965019 -3.483172 -42.553613 10.656927 17.762817 61.661916 1.583786 -8.765730 -22.542140 1.560618 -7.872239 -22.332658 0.000000 0.000000 0.000000 28.952073 -0.752232 -7.783614 -1.732390 -8.284673 23.582139 -2.310892 10.416527 -27.339691 -0.850782 5.878917 -16.434693 4.932220 -0.324680 5.413932 4.429246 0.076922 1.627120 1.793194 0.103569 -1.364302 -11.607760 -6.875561 -12.525054 9.250363 -8.505763 12.137524 4.018972 -3.945991 6.653343 0.000000 0.000000 0.000000 1.671571 2.270064 -17.429698 22.003395 -32.979106 6.588488 -0.992894 6.069209 -37.642640 0.000000 0.000000 0.000000 -7.125000 0.000000 0.000000 -42.643988 62.407689 19.925043 0.000000 0.000000 0.000000 -17.526692 -9.925105 13.493903 -23.234822 -34.344274 -7.270484 -9.173882 -26.442693 -13.631635 0.000000 0.000000 0.000000 7.125000 0.000000 0.000000 12.465622 16.382448 8.652926
-5.815030 16.766431 -13.625650 -155.250277 67.326182 -146.142255 0.000000 0.000000 0.000000 -5.076388 -3.841191 -43.060960 10.414215 17.635954 60.863561 1.548057 -8.835772 -22.287931 1.265479 -7.127685 -20.095439 0.000000 0.000000 0.000000 28.552699 -1.286508 -7.227141 -1.656117 -8.109391 23.047002 -2.332736 10.345928 -27.469595 -0.987456 6.324943 -17.730128 4.657329 -0.268062 5.704985 4.279764 0.148072 1.677309 1.787668 0.135331 -1.474758 -11.727137 -7.015592 -12.738648 9.572752 -8.700815 12.087418 4.115390 -4.015071 6.716002 0.000000 0.000000 0.000000 2.481163 2.938615 -18.339942 22.524356 -33.563419 6.874040 -1.545935 4.317707 -37.638469 0.000000 0.000000 0.000000 -7.125000 0.000000 0.000000 -43.164719 62.260972 20.070330 0.000000 0.000000 0.000000 -17.911690 -10.629030 14.257589 -23.622484 -34.762104 -7.490388 -9.094913 -27.554143 -13.614169 0.000000 0.000000 0.000000 7.125000 0.000000 0.000000 12.519798 16.404155 8.686399
-5.741117 16.748937 -13.675516 -155.099917 67.207178 -145.914983 0.000000 0.000000 0.000000 -4.671978 -4.232553 -43.866787 10.187948 17.513871 60.114160 1.536869 -8.623566 -22.199409 1.520140 -7.769628 -22.024787 0.000000 0.000000 0.000000 28.646531 -1.150733 -6.635868 -1.580864 -7.931692 22.507070 -2.318610 9.952461 -27.377231 -0.941647 6.176780 -17.299461 4.849806 -0.152454 5.860471 4.215117 0.320820 1.779086 1.601413 0.223666 -1.454077 -11.698569 -7.084873 -12.808028 9.805553 -8.807651 11.672315 4.172362 -4.047843 6.617287 0.000000 0.000000 0.000000 1.921904 2.184913 -17.335807 22.081812 -33.069295 6.630464 -1.643792 5.371419 -37.361844 0.000000 0.000000 0.000000 -7.125000 0.000000 0.000000 -42.904850 62.032099 19.693088 0.000000 0.000000 0.000000 -18.250278 -11.512426 14.612822 -24.014524 -35.178990 -7.715182 -8.953006 -28.363824 -13.527882 0.000000 0.000000 0.000000 7.125000 0.000000 0.000000 12.619445 16.497301 8.732963
-5.665416 16.721743 -13.723970 -153.329559 66.761565 -144.106888 0.000000 0.000000 0.000000 -3.357111 -4.506260 -44.934746 9.975412 17.395650 59.405649 1.443716 -8.928874 -21.527312 1.700457 -8.209087 -23.352656 0.000000 0.000000 0.000000 29.554367 -0.686493 -5.988903 -1.499119 -7.733061 21.906523 -2.280272 9.454907 -27.140677 -0.789809 5.666544 -15.821645 5.771420 -0.044680 5.986400 4.351187 0.549857 1.787360 1.212801 0.343693 -1.507070 -11.706638 -7.175376 -12.706175 9.944606 -8.938639 11.266446 4.205832 -4.106071 6.492617 0.000000 0.000000 0.000000 1.928478 2.235605 -17.149865 22.226547 -33.231248 6.709988 -2.059887 5.080142 -37.358223 0.000000 0.000000 0.000000 -7.125000 0.000000 0.000000 -43.293549 61.922672 19.797835 0.000000 0.000000 0.000000 -18.655217 -12.253355 15.034242 -24.450430 -35.636178 -7.967768 -9.328495 -29.363616 -13.411924 0.000000 0.000000 0.000000 7.125000 0.000000 0.000000 12.368780 16.590532 8.525240
-5.577849 16.705166 -13.774433 -151.782962 66.466677 -142.631359 0.000000 0.000000 0.000000 -2.242205 -4.650450 -45.726057 9.748551 17.265495 58.643884 1.274251 -9.600958 -20.293250 1.430616 -7.549924 -21.361365 0.000000 0.000000 0.000000 30.274373 -0.440389 -5.166543 -1.405459 -7.497694 21.199042 -2.231740 9.199860 -26.842460 -0.616132 5.011226 -13.943022 6.458527 0.062048 6.243701 4.468683 0.775984 1.781366 0.934991 0.459008 -1.645739 -11.754157 -7.338627 -12.818654 10.113660 -9.162946 11.201069 4.238843 -4.200574 6.527298 0.000000 0.000000 0.000000 2.916234 3.064149 -18.255988 22.911004 -33.988120 7.089885 -2.704802 2.901212 -37.545713 0.000000 0.000000 0.000000 -7.125000 0.000000 0.000000 -44.138501 61.894584 20.241001 0.000000 0.000000 0.000000 -19.166659 -12.906094 15.675740 -24.921062 -36.122304 -8.243728 -9.728244 -30.585198 -13.237045 0.000000 0.000000 0.000000 7.125000 0.000000 0.000000 12.103161 16.740722 8.292848
-5.483024 16.697968 -13.841716 -152.093988 66.590747 -142.930174 0.000000 0.000000 0.000000 -2.166962 -5.055647 -46.145280 9.501669 17.119419 57.808691 1.202109 -9.801517 -19.756090 1.270106 -7.143018 -20.139840 0.000000 0.000000 0.000000 29.978421 -0.657567 -4.345505 -1.303717 -7.232041 20.405240 -2.189717 9.130530 -26.582432 -0.574732 4.852799 -13.489486 6.438233 0.219354 6.444909 4.339925 0.993633 1.826124 0.795087 0.565069 -1.702912 -11.785914 -7.586763 -12.988541 10.172551 -9.479152 11.061402 4.219944 -4.346036 6.552403 0.000000 0.000000 0.000000 3.017417 2.964355 -18.269871 22.875848 -33.950479 7.069772 -2.750503 2.916659 -37.424404 0.000000 0.000000 0.000000 -7.125000 0.000000 0.000000 -44.028588 61.794303 20.075848 0.000000 0.000000 0.000000 -19.789690 -13.547533 16.179405 -25.407927 -36.617219 -8.532410 -9.892851 -31.783023 -13.013036 0.000000 0.000000 0.000000 7.125000 0.000000 0.000000 11.999145 16.953114 8.161157
-5.386551 16.689675 -13.914103 -152.457945 66.717403 -143.262528 0.000000 0.000000 0.000000 -2.029237 -5.597909 -46.506703 9.266676 16.975888 57.007292 1.182666 -10.293780 -19.668899 1.333249 -7.310490 -20.639027 0.000000 0.000000 0.000000 29.666953 -0.948471 -3.640660 -1.212074 -6.983226 19.666026 -2.169202 8.706172 -26.459413 -0.769870 5.585961 -15.591839 6.443336 0.365461 6.508773 4.222539 1.181019 1.952006 0.656533 0.661748 -1.598919 -11.822582 -7.830223 -13.165711 10.121409 -9.760038 10.752666 4.169629 -4.484136 6.515148 0.000000 0.000000 0.000000 2.294050 2.223672 -17.120188 22.446079 -33.477289 6.830370 -2.121354 4.877135 -37.114942 0.000000 0.000000 0.000000 -7.125000 0.000000 0.000000 -43.047215 61.727567 19.463355 0.000000 0.000000 0.000000 -20.455081 -14.392021 16.488998 -25.789931 -37.000136 -8.761039 -10.046289 -32.897633 -12.816442 0.000000 0.000000 0.000000 7.125000 0.000000 0.000000 11.901384 17.139310 8.042086
-5.289295 16.672433 -13.977106 -151.792987 66.570464 -142.532045 0.000000 0.000000 0.000000 -1.281054 -5.956764 -47.116927 9.078014 16.857454 56.359224 1.101320 -11.279083 -19.192479 1.325823 -7.291819 -20.583018 0.000000 0.000000 0.000000 29.954062 -1.078448 -3.056767 -1.128934 -6.747826 18.970695 -2.135745 8.273739 -26.256722 -0.944207 6.186125 -17.326291 6.728661 0.433252 6.618782 4.297203 1.311937 1.918404 0.563950 0.726809 -1.686237 -11.776590 -7.875733 -13.206477 10.086024 -9.810215 10.573907 4.143743 -4.509209 6.466554 0.000000 0.000000 0.000000 1.816128 2.550922 -16.315536 22.687602 -33.744885 6.964208 -1.859934 5.971726 -36.807912 0.000000 0.000000 0.000000 -7.125000 0.000000 0.000000 -42.421890 61.566192 18.959092 0.000000 0.000000 0.000000 -21.123873 -15.184432 17.013183 -26.093758 -37.300923 -8.944524 -10.616978 -34.304220 -12.710056 0.000000 0.000000 0.000000 7.125000 0.000000 0.000000 11.513651 17.212398 7.750130
